REM DIRINDEX 1\2,1\3,1\4,1\5
REM DIRNAME "folder01","folder02","folder03","folder04","folder05"
TITLE ""
FILE "P1Q_t_0188-0197.mp3" MP3
  TRACK 01 AUDIO
    TITLE "3:cjc173_1477"
    INDEX 01 00:00:00
  TRACK 02 AUDIO
    TITLE "0:"
    INDEX 01 00:01:22
  TRACK 03 AUDIO
    TITLE "4:cjc173_1478"
    INDEX 01 00:01:43
  TRACK 04 AUDIO
    TITLE "0:"
    INDEX 01 00:04:32
  TRACK 05 AUDIO
    TITLE "5:cjc173_1479"
    INDEX 01 00:04:53
  TRACK 06 AUDIO
    TITLE "0:"
    INDEX 01 00:09:60
  TRACK 07 AUDIO
    TITLE "3:cjc173_1480"
    INDEX 01 00:10:32
  TRACK 08 AUDIO
    TITLE "0:"
    INDEX 01 00:11:39
  TRACK 09 AUDIO
    TITLE "4:cjc173_1481"
    INDEX 01 00:11:59
  TRACK 10 AUDIO
    TITLE "0:"
    INDEX 01 00:14:36
  TRACK 11 AUDIO
    TITLE "5:cjc173_1482"
    INDEX 01 00:14:55
  TRACK 12 AUDIO
    TITLE "0:"
    INDEX 01 00:20:33
  TRACK 13 AUDIO
    TITLE "3:cjc173_1483"
    INDEX 01 00:21:05
  TRACK 14 AUDIO
    TITLE "0:"
    INDEX 01 00:22:00
  TRACK 15 AUDIO
    TITLE "4:cjc173_1484"
    INDEX 01 00:22:26
  TRACK 16 AUDIO
    TITLE "0:"
    INDEX 01 00:26:04
  TRACK 17 AUDIO
    TITLE "5:cjc173_1485"
    INDEX 01 00:26:23
  TRACK 18 AUDIO
    TITLE "0:"
    INDEX 01 00:30:21
  TRACK 19 AUDIO
    TITLE "3:cjc173_1486"
    INDEX 01 00:30:68
  TRACK 20 AUDIO
    TITLE "0:"
    INDEX 01 00:32:26
  TRACK 21 AUDIO
    TITLE "4:cjc173_1487"
    INDEX 01 00:32:48
  TRACK 22 AUDIO
    TITLE "0:"
    INDEX 01 00:35:38
  TRACK 23 AUDIO
    TITLE "5:cjc173_1488"
    INDEX 01 00:35:58
  TRACK 24 AUDIO
    TITLE "0:"
    INDEX 01 00:39:59
  TRACK 25 AUDIO
    TITLE "3:cjc173_1489"
    INDEX 01 00:40:31
  TRACK 26 AUDIO
    TITLE "0:"
    INDEX 01 00:41:35
  TRACK 27 AUDIO
    TITLE "4:cjc173_1490"
    INDEX 01 00:41:56
  TRACK 28 AUDIO
    TITLE "0:"
    INDEX 01 00:43:00
  TRACK 29 AUDIO
    TITLE "5:cjc173_1491"
    INDEX 01 00:43:20
  TRACK 30 AUDIO
    TITLE "0:"
    INDEX 01 00:48:29
  TRACK 31 AUDIO
    TITLE "3:cjc173_1492"
    INDEX 01 00:48:74
  TRACK 32 AUDIO
    TITLE "0:"
    INDEX 01 00:50:04
  TRACK 33 AUDIO
    TITLE "4:cjc173_1493"
    INDEX 01 00:50:26
  TRACK 34 AUDIO
    TITLE "0:"
    INDEX 01 00:52:70
  TRACK 35 AUDIO
    TITLE "5:cjc173_1494"
    INDEX 01 00:53:14
  TRACK 36 AUDIO
    TITLE "0:"
    INDEX 01 00:57:28
  TRACK 37 AUDIO
    TITLE "3:cjc173_1495"
    INDEX 01 00:57:73
  TRACK 38 AUDIO
    TITLE "0:"
    INDEX 01 00:59:09
  TRACK 39 AUDIO
    TITLE "4:cjc173_1496"
    INDEX 01 00:59:31
  TRACK 40 AUDIO
    TITLE "0:"
    INDEX 01 01:00:40
  TRACK 41 AUDIO
    TITLE "5:cjc173_1497"
    INDEX 01 01:00:61
  TRACK 42 AUDIO
    TITLE "0:"
    INDEX 01 01:05:22
  TRACK 43 AUDIO
    TITLE "3:cjc173_1498"
    INDEX 01 01:05:67
  TRACK 44 AUDIO
    TITLE "0:"
    INDEX 01 01:07:18
  TRACK 45 AUDIO
    TITLE "4:cjc173_1499"
    INDEX 01 01:07:40
  TRACK 46 AUDIO
    TITLE "0:"
    INDEX 01 01:10:23
  TRACK 47 AUDIO
    TITLE "5:cjc173_1500"
    INDEX 01 01:10:42
  TRACK 48 AUDIO
    TITLE "0:"
    INDEX 01 01:15:12
  TRACK 49 AUDIO
    TITLE "3:cjc173_1501"
    INDEX 01 01:15:59
  TRACK 50 AUDIO
    TITLE "0:"
    INDEX 01 01:17:15
  TRACK 51 AUDIO
    TITLE "4:cjc173_1502"
    INDEX 01 01:17:38
  TRACK 52 AUDIO
    TITLE "0:"
    INDEX 01 01:21:48
  TRACK 53 AUDIO
    TITLE "5:cjc173_1503"
    INDEX 01 01:21:70
  TRACK 54 AUDIO
    TITLE "0:"
    INDEX 01 01:26:67
  TRACK 55 AUDIO
    TITLE "3:cjc173_1504"
    INDEX 01 01:27:37
  TRACK 56 AUDIO
    TITLE "0:"
    INDEX 01 01:28:50
  TRACK 57 AUDIO
    TITLE "4:cjc173_1505"
    INDEX 01 01:28:72
  TRACK 58 AUDIO
    TITLE "0:"
    INDEX 01 01:31:23
  TRACK 59 AUDIO
    TITLE "5:cjc173_1506"
    INDEX 01 01:31:40
  TRACK 60 AUDIO
    TITLE "0:"
    INDEX 01 01:35:60
